<svg width="187" height="44" viewBox="0 0 187 44" fill="none" xmlns="http://www.w3.org/2000/svg">
<path fill-rule="evenodd" clip-rule="evenodd" d="M28.2246 15.4484L29.2243 15.4957L34.3937 13.6698C34.5902 13.601 34.7838 13.5264 34.9746 13.4446L35.0578 13.4059L35.0607 12.782L34.9488 12.8236L28.2246 15.4484Z" fill="white"/>
<path fill-rule="evenodd" clip-rule="evenodd" d="M42.967 15.7224L49.5376 15.424L42.9713 12.8852C42.9655 12.9613 42.9655 13.0645 42.9655 13.1162L42.967 15.7224ZM27.3643 20.3596H31.3374L37.888 18.4677L39.843 19.5205L41.8094 18.9683L39.8444 17.7462C39.2649 17.3848 39.0942 16.9544 39.1029 16.276L39.1014 9.6838C39.1488 7.7245 40.3809 7.75893 41.8711 8.34127L41.8769 8.34414L49.1963 11.5484C49.2006 11.3993 49.2034 11.2544 49.2006 11.0995C49.1991 11.0077 49.1819 10.9245 49.1116 10.8614C48.984 10.7466 48.624 10.586 48.4576 10.5014L39.0211 5.3306L28.9894 10.9718L28.6853 11.1468C28.6853 11.286 28.6838 11.4237 28.6824 11.5613L36.0793 8.22222C36.5827 7.99989 37.2382 7.89806 37.7661 8.07018C38.6941 8.37426 38.9092 9.33813 38.8777 10.2102L38.8748 14.6925L38.8734 14.7068C38.8289 15.1673 38.8719 15.523 38.7098 15.9863C38.4674 16.6848 37.9038 17.0936 37.2282 17.3389L37.2224 17.3417L27.3643 20.3596Z" fill="white"/>
<path fill-rule="evenodd" clip-rule="evenodd" d="M41.6217 8.96092C41.2731 8.82322 40.4283 8.50337 40.0754 8.73429C39.813 8.90355 39.7757 9.42134 39.7699 9.68956L39.7728 16.276C39.7685 16.7235 39.8244 16.9444 40.1988 17.1797L42.2987 18.482L42.2944 13.1018V13.0918C42.2987 13.0072 42.2958 12.9226 42.3044 12.8351C42.3489 12.3173 42.7031 12.0663 43.2066 12.2613L50.5776 15.1099C51.0381 15.2849 51.4124 15.4355 51.8786 15.2706C52.23 15.0411 52.3462 14.4573 52.3663 14.0743C52.4322 12.8422 52.405 11.5786 52.3648 10.3451C52.339 9.59346 52.0622 8.71135 51.3307 8.36424L51.3206 8.35993L51.3106 8.35707C47.326 6.1654 43.3113 4.02107 39.3066 1.85379L39.3095 4.72676L48.7689 9.91045C49.0128 10.0352 49.3642 10.1887 49.5607 10.3694C49.7744 10.5602 49.8662 10.8112 49.8705 11.0938C49.8734 11.2845 49.872 11.461 49.8633 11.6503V11.6689L49.8619 11.6833C49.806 12.1107 49.4244 12.3474 49.0142 12.2011L49.0027 12.1968L41.6217 8.96092Z" fill="white"/>
<path fill-rule="evenodd" clip-rule="evenodd" d="M25.4531 17.5425L25.4617 20.2463L37.0067 16.7078C37.4815 16.5342 37.906 16.2646 38.0767 15.7683C38.2044 15.3982 38.1699 15.0368 38.2029 14.661L38.2101 10.1973V10.1901C38.2273 9.6537 38.1585 8.90642 37.556 8.70704C37.1903 8.58512 36.6954 8.67979 36.3512 8.83326L28.8611 12.2183L28.8482 12.2226C28.4581 12.3632 28.0177 12.2255 28.0134 11.7579C28.0134 11.547 28.0148 11.3376 28.0177 11.1268C28.0206 10.7065 28.3505 10.5631 28.6617 10.3881L38.6877 4.75545L38.6476 1.85953L27.4081 8.18781C27.1586 8.36711 26.8961 8.53062 26.6422 8.70704C26.318 8.93654 25.9437 9.22484 25.7615 9.58773C25.5478 10.0123 25.489 10.5373 25.4861 11.012C25.4775 12.0462 25.489 13.0803 25.4904 14.1159C25.4904 14.3425 25.4474 15.2476 25.7386 15.3437C26.0885 15.4599 26.6537 15.3251 26.9907 15.2118L34.7003 12.204C35.2439 11.9773 35.7617 12.1165 35.7273 12.782L35.7244 13.4303C35.7244 13.7688 35.5207 13.9424 35.2324 14.0629C35.0287 14.1475 34.8222 14.2292 34.6142 14.301L25.4531 17.5425Z" fill="white"/>
<path d="M52.5926 7.18232H52.7661C52.8493 7.18232 52.9053 7.16797 52.934 7.14359L52.9813 7.04605L52.9583 6.97434L52.8967 6.92987C52.8709 6.91983 52.825 6.9141 52.7547 6.9141H52.5926V7.18232ZM52.4506 7.67716V6.79218H52.7532C52.8579 6.79218 52.9325 6.80078 52.9784 6.818L53.0903 6.90262L53.1305 7.03171C53.1305 7.09626 53.1075 7.15363 53.0616 7.20096C53.0143 7.2483 52.954 7.27555 52.878 7.28129L52.9512 7.32718C52.987 7.36448 53.0301 7.42185 53.0803 7.50504L53.1893 7.67716H53.0157L52.9368 7.5366C52.8766 7.42902 52.825 7.35874 52.7877 7.33149L52.6715 7.30137H52.5883V7.67573H52.4506V7.67716ZM52.8106 6.5383C52.6944 6.5383 52.5811 6.56842 52.475 6.62723C52.366 6.68604 52.2813 6.77066 52.2182 6.88111C52.158 6.99155 52.1279 7.1063 52.1279 7.22391C52.1279 7.34296 52.1566 7.45627 52.2168 7.56385C52.2785 7.67286 52.3631 7.75892 52.4707 7.81916C52.5797 7.87797 52.693 7.91096 52.812 7.91096C52.9297 7.91096 53.043 7.87797 53.152 7.81916C53.261 7.75892 53.3456 7.67286 53.4073 7.56385C53.4647 7.45627 53.4948 7.34296 53.4948 7.22391C53.4948 7.1063 53.4647 6.99155 53.4044 6.88111C53.3427 6.77066 53.2596 6.68604 53.1477 6.62723C53.0372 6.56842 52.9239 6.5383 52.8106 6.5383ZM52.8106 6.40204C52.9483 6.40204 53.0817 6.43646 53.2122 6.50674C53.3442 6.57846 53.4446 6.68173 53.5192 6.81226C53.5923 6.94422 53.6296 7.08048 53.6296 7.22391C53.6296 7.36735 53.5923 7.50217 53.5192 7.63413C53.4475 7.76466 53.3471 7.86649 53.218 7.93965C53.086 8.00993 52.9512 8.04435 52.8092 8.04435C52.6657 8.04435 52.5323 8.00849 52.4004 7.93965C52.2713 7.86793 52.1695 7.76466 52.0977 7.63413C52.0246 7.50217 51.9873 7.36735 51.9873 7.22391C51.9873 7.08048 52.0246 6.94422 52.0977 6.81226C52.1709 6.68173 52.2742 6.5799 52.4047 6.50674C52.5381 6.43646 52.67 6.40204 52.8106 6.40204Z" fill="white"/>
<path d="M18.7295 43.461V37.8054H21.2353C21.7416 37.8054 22.1246 37.857 22.387 37.9574C22.6495 38.0578 22.8575 38.2386 23.0153 38.4967C23.1731 38.7506 23.2534 39.0375 23.2534 39.3487C23.2534 39.7489 23.1214 40.0888 22.8604 40.3628C22.6022 40.6382 22.2006 40.8146 21.6584 40.8892C21.8549 40.9839 22.0055 41.0757 22.1088 41.1718C22.3282 41.3711 22.5348 41.6236 22.7313 41.9234L23.7167 43.4624H22.7743L22.0242 42.2863C21.8061 41.9477 21.624 41.6867 21.4849 41.5074C21.3414 41.3267 21.2138 41.2005 21.1033 41.1287C20.9929 41.057 20.8781 41.0068 20.7619 40.9767C20.6773 40.9581 20.5382 40.9494 20.346 40.9494H19.4768V43.461H18.7295ZM19.4782 40.2997H21.0875C21.4303 40.2997 21.6986 40.2667 21.8908 40.1936C22.0815 40.1233 22.2293 40.01 22.3311 39.8551C22.4301 39.6987 22.4817 39.5309 22.4817 39.3487C22.4817 39.0805 22.3842 38.8611 22.1905 38.6889C21.994 38.5168 21.6885 38.4293 21.2711 38.4293H19.4796V40.2997H19.4782Z" fill="white"/>
<path d="M27.141 42.1428L27.861 42.2318C27.7477 42.6506 27.5383 42.9762 27.2313 43.2071C26.9258 43.438 26.5328 43.5542 26.0581 43.5542C25.4571 43.5542 24.9823 43.3692 24.6323 42.9991C24.2795 42.6319 24.1045 42.1127 24.1045 41.4458C24.1045 40.7573 24.2809 40.2223 24.6366 39.8407C24.9909 39.4621 25.4528 39.2684 26.0179 39.2684C26.5658 39.2684 27.0148 39.4578 27.3619 39.8307C27.709 40.2036 27.8825 40.7286 27.8825 41.4027C27.8825 41.4458 27.8811 41.5074 27.8782 41.5878H24.8202C24.846 42.0381 24.9766 42.3838 25.2032 42.6233C25.4298 42.8643 25.7181 42.9819 26.0595 42.9819C26.3148 42.9819 26.5314 42.9159 26.7135 42.7811C26.8943 42.6492 27.0363 42.4354 27.141 42.1428ZM24.8604 41.0198H27.1496C27.118 40.6741 27.0305 40.4159 26.8871 40.2452C26.6662 39.9784 26.3793 39.8422 26.0265 39.8422C25.7081 39.8422 25.4384 39.9497 25.2218 40.1649C25.0038 40.3757 24.8833 40.6612 24.8604 41.0198Z" fill="white"/>
<path d="M31.4059 42.9575C31.1506 43.1756 30.901 43.329 30.6629 43.4208C30.4248 43.5112 30.1695 43.5557 29.897 43.5557C29.448 43.5557 29.1009 43.4438 28.86 43.2243C28.619 43.0049 28.4971 42.7252 28.4971 42.3824C28.4971 42.1816 28.5415 41.998 28.6333 41.833C28.7251 41.6652 28.8456 41.5332 28.9934 41.4328C29.1425 41.3339 29.3075 41.2564 29.4925 41.2048C29.6288 41.1689 29.8339 41.1331 30.1107 41.1001C30.6701 41.0341 31.0832 40.9538 31.3471 40.8634C31.35 40.7673 31.3514 40.7071 31.3514 40.6798C31.3514 40.3973 31.2854 40.1979 31.1549 40.0817C30.9785 39.9239 30.7146 39.845 30.3646 39.845C30.0361 39.845 29.7951 39.901 29.6402 40.0186C29.4839 40.1333 29.3691 40.3356 29.296 40.6253L28.6147 40.5335C28.6764 40.2423 28.7782 40.0085 28.9202 39.8293C29.0608 39.6485 29.2659 39.5137 29.5341 39.4162C29.7994 39.3201 30.1107 39.2713 30.4635 39.2713C30.8135 39.2713 31.0975 39.3129 31.3155 39.3947C31.5336 39.4764 31.6956 39.5811 31.7975 39.7045C31.9022 39.8307 31.9725 39.987 32.0155 40.1764C32.037 40.2954 32.0485 40.5091 32.0485 40.8189V41.7441C32.0485 42.391 32.0628 42.7983 32.0915 42.969C32.1216 43.1426 32.1819 43.3061 32.2679 43.4624H31.5422C31.4719 43.3176 31.4274 43.1483 31.4059 42.9575ZM31.3471 41.4042C31.0947 41.506 30.7189 41.5949 30.214 41.6681C29.9271 41.7097 29.7249 41.7556 29.6072 41.8072C29.4882 41.8574 29.3978 41.9334 29.3333 42.0338C29.2687 42.1299 29.2372 42.2418 29.2372 42.3623C29.2372 42.5473 29.306 42.7037 29.4466 42.8256C29.5872 42.9489 29.7937 43.0106 30.0619 43.0106C30.3287 43.0106 30.5697 42.9518 30.7762 42.8342C30.9842 42.718 31.1377 42.5574 31.2338 42.3551C31.3098 42.1973 31.3457 41.9664 31.3457 41.6595V41.4042H31.3471Z" fill="white"/>
<path d="M33.806 37.8054H33.1104V43.4638H33.806V37.8054Z" fill="white"/>
<path d="M37.1816 43.4624V37.8054H41.2738V38.4724H37.9318V40.205H41.0615V40.8691H37.9318V42.7954H41.4043V43.4624H37.1816Z" fill="white"/>
<path d="M42.0713 42.2389L42.7583 42.1313C42.7971 42.4067 42.9046 42.6176 43.0796 42.7653C43.2546 42.9102 43.5028 42.9833 43.8197 42.9833C44.1382 42.9833 44.3763 42.9188 44.5297 42.7883C44.6818 42.6577 44.7607 42.5057 44.7607 42.3307C44.7607 42.1744 44.6933 42.0496 44.5556 41.9606C44.4609 41.899 44.2242 41.8215 43.847 41.7254C43.3378 41.5963 42.9835 41.4845 42.7856 41.3912C42.5891 41.2966 42.4399 41.1675 42.3381 41.0025C42.2362 40.8361 42.1846 40.6525 42.1846 40.4503C42.1846 40.2696 42.2276 40.1003 42.3108 39.944C42.394 39.7891 42.5088 39.66 42.6522 39.5553C42.7598 39.4764 42.9061 39.4075 43.094 39.353C43.2804 39.2985 43.4784 39.2698 43.6935 39.2698C44.0162 39.2698 44.2988 39.3186 44.5412 39.409C44.7851 39.5036 44.9643 39.6284 45.0791 39.7876C45.1953 39.944 45.2742 40.1563 45.3172 40.4216L44.6402 40.512C44.6086 40.3026 44.5183 40.1376 44.3705 40.0186C44.2228 39.8995 44.0134 39.8407 43.7423 39.8407C43.4253 39.8407 43.1958 39.8938 43.0595 39.9985C42.9233 40.1046 42.8544 40.228 42.8544 40.37C42.8544 40.4603 42.8831 40.5421 42.9391 40.6138C42.995 40.687 43.0854 40.7501 43.2073 40.7974C43.2761 40.8247 43.4798 40.8835 43.8212 40.9781C44.3132 41.1058 44.6545 41.2162 44.8496 41.298C45.0432 41.3812 45.1953 41.5031 45.3057 41.6637C45.4162 41.8215 45.4721 42.0209 45.4721 42.2576C45.4721 42.4914 45.4033 42.7079 45.2684 42.9145C45.1336 43.1167 44.9385 43.2759 44.6832 43.3864C44.4293 43.4983 44.1425 43.5556 43.8197 43.5556C43.2862 43.5556 42.8803 43.4452 42.602 43.2229C42.3266 43.002 42.1487 42.6721 42.0713 42.2389Z" fill="white"/>
<path d="M47.818 42.8413L47.9184 43.4552C47.7219 43.4954 47.5483 43.5169 47.392 43.5169C47.141 43.5169 46.9459 43.4753 46.8068 43.3979C46.6691 43.3175 46.5701 43.2114 46.5128 43.0823C46.4568 42.9532 46.4296 42.6807 46.4296 42.2633V39.9038H45.9189V39.3645H46.4296V38.3476L47.1195 37.933V39.3645H47.8166V39.9038H47.1195V42.3006C47.1195 42.4985 47.131 42.6248 47.1568 42.6836L47.2758 42.8184C47.3318 42.8514 47.4107 42.8686 47.5139 42.8686C47.5914 42.8686 47.6932 42.8586 47.818 42.8413Z" fill="white"/>
<path d="M51.172 42.9575C50.9182 43.1756 50.6686 43.329 50.4305 43.4208C50.1938 43.5112 49.9371 43.5557 49.6646 43.5557C49.2156 43.5557 48.8685 43.4438 48.6275 43.2243C48.3851 43.0049 48.2646 42.7252 48.2646 42.3824C48.2646 42.1816 48.3091 41.998 48.4009 41.833C48.4941 41.6652 48.6132 41.5332 48.7609 41.4328C48.9101 41.3339 49.075 41.2564 49.2601 41.2048C49.3963 41.1689 49.6014 41.1331 49.8783 41.1001C50.4377 41.0341 50.8522 40.9538 51.1175 40.8634C51.119 40.7673 51.1204 40.7071 51.1204 40.6798C51.1204 40.3973 51.0544 40.1979 50.9239 40.0817C50.746 39.9239 50.4836 39.845 50.1336 39.845C49.8051 39.845 49.5642 39.901 49.4092 40.0186C49.2543 40.1333 49.1382 40.3356 49.0636 40.6253L48.3837 40.5335C48.4439 40.2423 48.5472 40.0085 48.6878 39.8293C48.8312 39.6485 49.0363 39.5137 49.3017 39.4162C49.5685 39.3201 49.8797 39.2713 50.2326 39.2713C50.5825 39.2713 50.8665 39.3129 51.0846 39.3947C51.304 39.4764 51.4647 39.5811 51.5665 39.7045C51.6683 39.8307 51.7415 39.987 51.7816 40.1764C51.8046 40.2954 51.8175 40.5091 51.8175 40.8189V41.7441C51.8175 42.391 51.8318 42.7983 51.862 42.969C51.8907 43.1426 51.9495 43.3061 52.037 43.4624H51.3126C51.2409 43.3176 51.195 43.1483 51.172 42.9575ZM51.1161 41.4042C50.8622 41.506 50.485 41.5949 49.9801 41.6681C49.6961 41.7097 49.4924 41.7556 49.3763 41.8072C49.2572 41.8574 49.164 41.9334 49.1009 42.0338C49.0363 42.1299 49.0048 42.2418 49.0048 42.3623C49.0048 42.5473 49.0751 42.7037 49.2142 42.8256C49.3562 42.9489 49.5613 43.0106 49.8295 43.0106C50.0963 43.0106 50.3373 42.9518 50.5452 42.8342C50.7518 42.718 50.9053 42.5574 51.0028 42.3551C51.0759 42.1973 51.1147 41.9664 51.1147 41.6595V41.4042H51.1161Z" fill="white"/>
<path d="M54.4098 42.8413L54.5102 43.4552C54.3151 43.4954 54.1401 43.5169 53.9838 43.5169C53.7328 43.5169 53.5377 43.4753 53.3986 43.3979C53.2609 43.3175 53.1619 43.2114 53.1046 43.0823C53.0486 42.9532 53.0199 42.6807 53.0199 42.2633V39.9038H52.5107V39.3645H53.0199V38.3476L53.7113 37.933V39.3645H54.4084V39.9038H53.7113V42.3006C53.7113 42.4985 53.7228 42.6248 53.7486 42.6836L53.8676 42.8184C53.9221 42.8514 54.0024 42.8686 54.1043 42.8686C54.1832 42.8686 54.2821 42.8586 54.4098 42.8413Z" fill="white"/>
<path d="M57.8939 42.1428L58.6139 42.2318C58.5006 42.6506 58.2912 42.9762 57.9843 43.2071C57.6788 43.438 57.2872 43.5542 56.811 43.5542C56.2114 43.5542 55.7352 43.3692 55.3838 42.9991C55.0324 42.6319 54.8574 42.1127 54.8574 41.4458C54.8574 40.7573 55.0353 40.2223 55.3896 39.8407C55.7453 39.4621 56.2057 39.2684 56.7708 39.2684C57.3187 39.2684 57.7677 39.4578 58.1177 39.8307C58.4633 40.2036 58.6369 40.7286 58.6369 41.4027C58.6369 41.4458 58.6355 41.5074 58.6326 41.5878H55.5775C55.6033 42.0381 55.7324 42.3838 55.959 42.6233C56.1885 42.8643 56.4754 42.9819 56.8167 42.9819C57.0706 42.9819 57.2886 42.9159 57.4693 42.7811C57.6458 42.6492 57.7892 42.4354 57.8939 42.1428ZM55.6148 41.0198H57.9025C57.8724 40.6741 57.7849 40.4159 57.6415 40.2452C57.4206 39.9784 57.1337 39.8422 56.7809 39.8422C56.4596 39.8422 56.1928 39.9497 55.9762 40.1649C55.7582 40.3757 55.6377 40.6612 55.6148 41.0198Z" fill="white"/>
<path d="M41.1525 27.9286H43.1132V33.0563H41.1525V27.9286ZM41.1525 25.9793H43.1132V27.3161H41.1525V25.9793ZM38.7902 27.9286H40.7581V32.9014C40.7581 33.5354 40.7136 33.9829 40.6218 34.2497C40.5286 34.5136 40.3579 34.7273 40.1112 34.8908C39.8673 35.0543 39.5116 35.139 39.0526 35.139C38.674 35.139 38.2035 35.0816 37.6398 34.9697L37.9353 33.5397C38.0916 33.5712 38.2093 33.587 38.281 33.587C38.4488 33.587 38.5721 33.5311 38.6611 33.4163C38.7471 33.3002 38.7887 33.075 38.7887 32.7336V27.9286H38.7902ZM38.7902 25.9793H40.7566V27.329H38.7902V25.9793ZM34.8658 27.9286H36.7003V28.7691C36.8782 28.4062 37.0618 28.1552 37.2468 28.0175C37.4347 27.8827 37.6671 27.811 37.9425 27.811C38.2322 27.811 38.5478 27.9042 38.8906 28.082L38.2853 29.482C38.0543 29.3859 37.8708 29.3371 37.7359 29.3371C37.4806 29.3371 37.2784 29.4461 37.1392 29.6541C36.9356 29.9539 36.8337 30.5161 36.8337 31.338V33.0535H34.8673V27.9286H34.8658ZM30.9099 30.5003C30.9099 30.9593 31.0003 31.2964 31.1882 31.5144C31.3689 31.7324 31.6041 31.8429 31.8824 31.8429C32.1664 31.8429 32.3973 31.7353 32.5781 31.5173C32.7588 31.3036 32.852 30.9593 32.852 30.4817C32.852 30.037 32.7588 29.7057 32.5766 29.4891C32.393 29.2725 32.1678 29.1635 31.8996 29.1635C31.6099 29.1635 31.3761 29.274 31.1896 29.492C31.0046 29.7158 30.9099 30.05 30.9099 30.5003ZM28.9434 30.5075C28.9434 29.7244 29.2074 29.0789 29.7352 28.574C30.2645 28.0663 30.9716 27.8124 31.8681 27.8124C32.8936 27.8124 33.6653 28.1107 34.1917 28.706C34.6119 29.1836 34.8214 29.776 34.8214 30.4774C34.8214 31.2663 34.5617 31.9132 34.0396 32.4152C33.5175 32.9201 32.7975 33.1696 31.8738 33.1696C31.0519 33.1696 30.3878 32.9631 29.8801 32.5428C29.2576 32.025 28.9434 31.3466 28.9434 30.5075ZM25.25 30.5003C25.25 30.9593 25.3433 31.2964 25.5269 31.5144C25.7133 31.7324 25.9443 31.8429 26.2254 31.8429C26.5065 31.8429 26.7374 31.7353 26.9182 31.5173C27.1018 31.3036 27.1907 30.9593 27.1907 30.4817C27.1907 30.037 27.0975 29.7057 26.9182 29.4891C26.736 29.2725 26.5065 29.1635 26.2369 29.1635C25.95 29.1635 25.7162 29.274 25.5283 29.492C25.3447 29.7158 25.25 30.05 25.25 30.5003ZM23.285 30.5075C23.285 29.7244 23.5489 29.0789 24.0767 28.574C24.6031 28.0663 25.3131 27.8124 26.211 27.8124C27.2366 27.8124 28.0083 28.1107 28.5332 28.706C28.9549 29.1836 29.1629 29.776 29.1629 30.4774C29.1629 31.2663 28.9033 31.9132 28.3798 32.4152C27.8591 32.9201 27.1376 33.1696 26.2153 33.1696C25.3949 33.1696 24.7308 32.9631 24.2216 32.5428C23.5977 32.025 23.285 31.3466 23.285 30.5075ZM19.844 30.5075C19.844 30.9134 19.9272 31.2132 20.0979 31.4097C20.27 31.6062 20.4823 31.7052 20.7434 31.7052C20.97 31.7052 21.1622 31.6105 21.3171 31.4226C21.472 31.2333 21.5495 30.9149 21.5495 30.4645C21.5495 30.05 21.4663 29.743 21.307 29.5479C21.1464 29.3529 20.9513 29.2553 20.719 29.2553C20.4665 29.2553 20.26 29.3543 20.0922 29.5508C19.9258 29.7487 19.844 30.0672 19.844 30.5075ZM17.879 35.007V27.9286H19.7135V28.6873C19.9674 28.3689 20.1997 28.1509 20.4106 28.0404C20.6975 27.8884 21.013 27.8124 21.3587 27.8124C22.0429 27.8124 22.5721 28.0763 22.9508 28.5998C23.3223 29.1262 23.5088 29.7731 23.5088 30.5477C23.5088 31.3982 23.3051 32.0494 22.8963 32.4969C22.4889 32.9459 21.9711 33.1696 21.3515 33.1696C21.0489 33.1696 20.772 33.1194 20.5239 33.0176C20.2758 32.9129 20.052 32.7608 19.8555 32.5572V35.0056H17.879V35.007ZM15.5984 30.6208C15.3273 30.7184 15.049 30.8044 14.7564 30.8776C14.3577 30.9837 14.1053 31.0884 14.002 31.1931C13.8901 31.3007 13.8356 31.4183 13.8356 31.5546C13.8356 31.7109 13.8901 31.8343 13.9977 31.9347C14.1067 32.0308 14.2645 32.0824 14.4724 32.0824C14.6905 32.0824 14.8927 32.0293 15.0835 31.9232C15.2685 31.8156 15.4033 31.6851 15.4836 31.5331C15.5625 31.381 15.5998 31.1816 15.5998 30.9378V30.6208H15.5984ZM13.8987 29.5895L12.0269 29.393C12.0943 29.0646 12.199 28.8049 12.331 28.6171C12.4644 28.4292 12.6551 28.2671 12.9061 28.1279C13.084 28.029 13.335 27.9501 13.6491 27.8956C13.9618 27.8425 14.3032 27.8138 14.6689 27.8138C15.257 27.8138 15.7318 27.8468 16.0846 27.9128C16.4418 27.9802 16.7401 28.1165 16.9754 28.3259C17.1432 28.4722 17.2737 28.6759 17.3712 28.9412C17.4673 29.208 17.5161 29.459 17.5161 29.7028V31.9677C17.5161 32.2072 17.5333 32.398 17.562 32.5342C17.5921 32.6719 17.6567 32.844 17.7628 33.0578H15.9226C15.8465 32.9258 15.8006 32.8254 15.7777 32.7565C15.7562 32.6863 15.7318 32.5787 15.7088 32.4295C15.455 32.6791 15.1968 32.8541 14.9458 32.9602C14.5987 33.1022 14.1956 33.1725 13.7352 33.1725C13.127 33.1725 12.6623 33.0319 12.3468 32.7479C12.0298 32.4668 11.8706 32.1168 11.8706 31.6994C11.8706 31.3107 11.9839 30.9909 12.2134 30.7399C12.44 30.4874 12.8617 30.3024 13.4756 30.1805C14.2085 30.0327 14.6862 29.928 14.9042 29.8707C15.1222 29.8104 15.3546 29.7315 15.5984 29.6354C15.5984 29.3945 15.5496 29.2238 15.4507 29.1262C15.3503 29.0316 15.1753 28.9828 14.9228 28.9828C14.603 28.9828 14.362 29.0359 14.2014 29.1363C14.0766 29.2152 13.9762 29.3672 13.8987 29.5895ZM6.45307 25.9793H8.41381V28.5841C8.67773 28.3087 8.94595 28.1093 9.207 27.9946C9.46948 27.8712 9.7836 27.8124 10.1436 27.8124C10.6758 27.8124 11.0931 27.9745 11.403 28.3001C11.7085 28.6271 11.8605 29.1248 11.8605 29.7961V33.0549H9.89118V30.235C9.89118 29.9137 9.83093 29.6885 9.71332 29.5537C9.59427 29.4188 9.42789 29.3514 9.2113 29.3514C8.97607 29.3514 8.781 29.4418 8.6347 29.6211C8.48839 29.7989 8.41381 30.126 8.41381 30.5907V33.0535H6.45307V25.9793ZM0 30.714L2.07692 30.5835C2.12138 30.922 2.21461 31.1773 2.35231 31.3566C2.57607 31.6435 2.89736 31.7855 3.31475 31.7855C3.626 31.7855 3.86553 31.7138 4.03622 31.5675C4.2026 31.4183 4.28579 31.2491 4.28579 31.0569C4.28579 30.8733 4.2069 30.7083 4.04769 30.5634C3.88561 30.42 3.51412 30.2823 2.92748 30.1547C1.97078 29.9395 1.28947 29.6541 0.882116 29.2969C0.470462 28.9398 0.265352 28.4837 0.265352 27.9286C0.265352 27.5642 0.370058 27.2214 0.58234 26.8987C0.791753 26.5746 1.10874 26.3221 1.529 26.1357C1.95357 25.9506 2.5316 25.8588 3.26598 25.8588C4.16818 25.8588 4.85953 26.0266 5.32999 26.3623C5.80475 26.6979 6.08589 27.2344 6.17768 27.9687L4.12085 28.0863C4.06491 27.7694 3.95303 27.537 3.77517 27.3921C3.60018 27.2487 3.35778 27.177 3.0537 27.177C2.79695 27.177 2.60475 27.2301 2.4771 27.3405C2.34801 27.4466 2.2849 27.5772 2.2849 27.7349C2.2849 27.8468 2.3394 27.9472 2.44411 28.0361C2.54451 28.1308 2.79122 28.2169 3.17562 28.2972C4.13089 28.5023 4.81363 28.7117 5.22385 28.9226C5.63837 29.1334 5.93815 29.3959 6.12605 29.7071C6.31538 30.0184 6.41004 30.3669 6.41004 30.7542C6.41004 31.2075 6.28239 31.6263 6.03138 32.0078C5.78324 32.3922 5.43183 32.682 4.98145 32.8799C4.53393 33.0778 3.96737 33.1754 3.28176 33.1754C2.08122 33.1754 1.24931 32.9444 0.78745 32.4811C0.322725 32.0179 0.0616764 31.4298 0 30.714Z" fill="white"/>
<path d="M75.4062 27.8009H77.3669V32.9286H75.4062V27.8009ZM75.4062 25.8502H77.3669V27.1884H75.4062V25.8502ZM73.0452 27.8009H75.0117V32.7709C75.0117 33.4063 74.9672 33.8566 74.874 34.1206C74.7808 34.3816 74.613 34.5982 74.3677 34.7603C74.1196 34.9267 73.7653 35.0084 73.3049 35.0084C72.9248 35.0084 72.4557 34.9525 71.8935 34.8392L72.1889 33.4106C72.3439 33.4421 72.4629 33.4579 72.5389 33.4579C72.7024 33.4579 72.8301 33.4034 72.9133 33.2858C73.0022 33.1725 73.0452 32.9458 73.0452 32.6045V27.8009ZM73.0452 25.8502H75.0117V27.1999H73.0452V25.8502ZM67.3093 27.8009H69.1381V28.6357C69.4092 28.2943 69.6846 28.0519 69.9657 27.9042C70.244 27.7579 70.5854 27.6833 70.9855 27.6833C71.5263 27.6833 71.9537 27.8468 72.2592 28.1695C72.5647 28.4922 72.7182 28.9928 72.7182 29.6684V32.9272H70.7474V30.1059C70.7474 29.7831 70.6886 29.5579 70.571 29.4246C70.4491 29.2883 70.2827 29.2237 70.0676 29.2237C69.8309 29.2237 69.6373 29.3141 69.491 29.4948C69.3432 29.6727 69.2701 29.9983 69.2701 30.4659V32.9272H67.3079V27.8009H67.3093ZM63.3764 30.3726C63.3764 30.8316 63.4696 31.1687 63.6532 31.3867C63.8368 31.6076 64.0692 31.7195 64.3503 31.7195C64.6343 31.7195 64.8624 31.609 65.0445 31.3925C65.2281 31.1773 65.3185 30.8331 65.3185 30.3554C65.3185 29.9122 65.2253 29.5809 65.0445 29.3614C64.8638 29.1463 64.6343 29.0387 64.3647 29.0387C64.0778 29.0387 63.8426 29.1492 63.6561 29.3686C63.4682 29.5866 63.3764 29.9251 63.3764 30.3726ZM61.4114 30.3784C61.4114 29.5981 61.6738 28.9498 62.2002 28.4463C62.7281 27.94 63.4395 27.6847 64.3345 27.6847C65.3601 27.6847 66.1332 27.9845 66.6582 28.5783C67.077 29.0588 67.2864 29.6483 67.2864 30.3526C67.2864 31.1415 67.0268 31.7869 66.5061 32.2918C65.984 32.7924 65.264 33.0462 64.3403 33.0462C63.5198 33.0462 62.8529 32.834 62.3465 32.4166C61.7226 31.8959 61.4114 31.2175 61.4114 30.3784ZM59.3545 25.8502H61.321V32.9286H59.3545V25.8502ZM56.9907 25.8502H58.9558V32.9286H56.9907V25.8502ZM54.7503 30.4931C54.4806 30.5907 54.201 30.6782 53.9098 30.7513C53.5125 30.856 53.2586 30.9636 53.1539 31.0654C53.0434 31.1716 52.9904 31.2935 52.9904 31.4254C52.9904 31.5818 53.0434 31.7051 53.1482 31.807C53.2586 31.9031 53.4149 31.9518 53.6258 31.9518C53.8438 31.9518 54.0475 31.8988 54.2325 31.7955C54.4218 31.6879 54.5552 31.5574 54.6327 31.4068C54.713 31.2519 54.7503 31.0554 54.7503 30.8101V30.4931ZM53.0535 29.4604L51.1802 29.2625C51.2505 28.934 51.3509 28.6773 51.4843 28.4894C51.6177 28.3 51.8056 28.138 52.0595 27.9988C52.2388 27.8984 52.4884 27.821 52.801 27.7665C53.1137 27.7134 53.4565 27.6833 53.8209 27.6833C54.4104 27.6833 54.8823 27.7163 55.238 27.7822C55.5937 27.8482 55.8935 27.9888 56.1301 28.1953C56.2979 28.3431 56.4285 28.5453 56.526 28.8121C56.6207 29.0789 56.6694 29.3313 56.6694 29.5737V31.8357C56.6694 32.0781 56.6867 32.266 56.7168 32.4037C56.7469 32.5414 56.8143 32.7149 56.919 32.9286H55.0788C55.0056 32.7952 54.9525 32.6963 54.9339 32.6246C54.9095 32.5571 54.8894 32.4481 54.865 32.3004C54.6083 32.5471 54.353 32.725 54.1005 32.8297C53.7534 32.9702 53.3504 33.0434 52.89 33.0434C52.2804 33.0434 51.8157 32.8999 51.5001 32.6174C51.1845 32.3348 51.0253 31.9877 51.0253 31.5703C51.0253 31.1802 51.1401 30.8589 51.3667 30.6093C51.5933 30.3569 52.0136 30.1718 52.6289 30.0485C53.3647 29.9007 53.8424 29.7989 54.0618 29.7372C54.2784 29.6784 54.5108 29.5995 54.7532 29.5049C54.7532 29.261 54.7044 29.0961 54.604 28.9971C54.5065 28.901 54.33 28.8523 54.079 28.8523C53.7577 28.8523 53.5196 28.9025 53.359 29.0057C53.2299 29.0889 53.1281 29.2395 53.0535 29.4604ZM47.5442 28.8666H48.0778C48.5009 28.8666 48.7935 28.7963 48.9656 28.6471C49.1334 28.5008 49.2195 28.3129 49.2195 28.0863C49.2195 27.864 49.1464 27.6747 49.0015 27.5212C48.8523 27.3677 48.5741 27.2888 48.1667 27.2888H47.5442V28.8666ZM45.3525 25.8502H48.98C49.7689 25.8502 50.3598 26.0395 50.7542 26.4168C51.1458 26.7911 51.3438 27.329 51.3438 28.0218C51.3438 28.7361 51.1272 29.2955 50.7012 29.6956C50.2709 30.0987 49.6168 30.2995 48.7376 30.2995H47.5442V32.9272H45.3525V25.8502Z" fill="white"/>
<path d="M88.8926 7.35013V38.0564" stroke="white" stroke-width="0.5" stroke-miterlimit="10"/>
<path d="M101.93 37.0337H102.724V38.8783H102.737C102.795 38.7936 102.863 38.7105 102.941 38.6402C103.018 38.5742 103.114 38.5168 103.205 38.4652C103.301 38.4164 103.406 38.3834 103.505 38.3562C103.609 38.3304 103.715 38.316 103.816 38.316C104.103 38.316 104.348 38.3691 104.556 38.4652C104.768 38.5656 104.948 38.7033 105.084 38.8768C105.223 39.0518 105.328 39.2526 105.401 39.4879C105.468 39.7188 105.508 39.9698 105.508 40.2366C105.508 40.4733 105.474 40.7114 105.412 40.9394C105.348 41.1689 105.257 41.364 105.125 41.5418C104.996 41.714 104.834 41.856 104.642 41.9607C104.444 42.0654 104.213 42.117 103.949 42.117C103.832 42.117 103.707 42.1127 103.583 42.0912C103.457 42.0783 103.341 42.0482 103.226 41.9951C103.12 41.9549 103.017 41.8932 102.927 41.8187C102.832 41.7426 102.759 41.6465 102.701 41.5232H102.687V42.0223H101.93V37.0337ZM104.709 40.2165C104.709 40.0544 104.695 39.8952 104.645 39.7417C104.608 39.5911 104.543 39.4577 104.457 39.3387C104.377 39.2139 104.271 39.1207 104.146 39.0504C104.018 38.9801 103.876 38.9428 103.718 38.9428C103.377 38.9428 103.123 39.059 102.955 39.2928C102.789 39.528 102.704 39.8321 102.704 40.2179C102.704 40.4001 102.726 40.5694 102.772 40.7214C102.816 40.8849 102.876 41.0154 102.967 41.1273C103.054 41.2392 103.159 41.3281 103.282 41.397C103.408 41.4586 103.552 41.4873 103.718 41.4873C103.892 41.4873 104.048 41.4515 104.177 41.3812C104.298 41.3052 104.407 41.2076 104.484 41.09C104.563 40.9724 104.626 40.8376 104.662 40.687C104.695 40.5306 104.709 40.3743 104.709 40.2165Z" fill="white"/>
<path d="M105.654 38.4107H106.525L107.469 41.1073H107.486L108.397 38.4107H109.226L107.816 42.2117C107.746 42.3781 107.687 42.5301 107.625 42.6822C107.565 42.827 107.486 42.9604 107.393 43.078C107.308 43.1899 107.198 43.2788 107.064 43.3448C106.928 43.4151 106.753 43.4495 106.544 43.4495C106.359 43.4495 106.176 43.4352 105.997 43.4051V42.7352C106.057 42.7395 106.122 42.7596 106.181 42.7696C106.24 42.7783 106.3 42.7826 106.367 42.7826C106.462 42.7826 106.536 42.7754 106.6 42.7539C106.661 42.7281 106.711 42.6893 106.75 42.652C106.792 42.6076 106.818 42.5531 106.852 42.4943C106.878 42.4383 106.899 42.3566 106.927 42.2834L107.017 42.0051L105.654 38.4107Z" fill="white"/>
<path d="M150.084 36.9591H151.948V41.8086H150.084V36.9591ZM150.084 35.116H151.948V36.3811H150.084V35.116ZM147.85 36.9591H149.713V41.6666C149.713 42.269 149.664 42.6907 149.578 42.9417C149.493 43.1899 149.33 43.3935 149.098 43.5456C148.871 43.7034 148.532 43.7866 148.092 43.7866C147.732 43.7866 147.292 43.7277 146.76 43.6245L147.034 42.2705C147.181 42.2977 147.295 42.3207 147.368 42.3207C147.523 42.3207 147.645 42.2647 147.728 42.15C147.805 42.0438 147.85 41.8301 147.85 41.5031V36.9591ZM147.85 35.116H149.713V36.3969H147.85V35.116ZM144.119 36.9591H145.862V37.7451C146.034 37.4124 146.206 37.1771 146.382 37.0452C146.555 36.9132 146.781 36.8487 147.035 36.8487C147.318 36.8487 147.617 36.9376 147.94 37.114L147.369 38.435C147.145 38.3461 146.969 38.2974 146.846 38.2974C146.603 38.2974 146.411 38.3963 146.276 38.5971C146.086 38.8783 145.994 39.4147 145.994 40.1835V41.8086H144.12V36.9591H144.119ZM140.368 39.3961C140.368 39.8264 140.467 40.1476 140.634 40.3556C140.811 40.5579 141.028 40.6669 141.298 40.6669C141.563 40.6669 141.783 40.5579 141.955 40.3642C142.124 40.1519 142.213 39.8249 142.213 39.3788C142.213 38.9557 142.125 38.6502 141.955 38.4365C141.78 38.2285 141.563 38.1324 141.306 38.1324C141.038 38.1324 140.81 38.2285 140.641 38.4394C140.466 38.6531 140.368 38.9686 140.368 39.3961ZM138.508 39.4018C138.508 38.6674 138.757 38.0521 139.262 37.5716C139.757 37.0896 140.437 36.8472 141.282 36.8472C142.259 36.8472 142.995 37.1341 143.482 37.6921C143.885 38.1525 144.085 38.7061 144.085 39.376C144.085 40.1218 143.838 40.7329 143.34 41.2047C142.845 41.6809 142.161 41.919 141.291 41.919C140.512 41.919 139.883 41.7268 139.396 41.3295C138.806 40.8433 138.508 40.195 138.508 39.4018ZM135.01 39.3961C135.01 39.8264 135.094 40.1476 135.269 40.3556C135.447 40.5579 135.664 40.6669 135.929 40.6669C136.202 40.6669 136.415 40.5579 136.586 40.3642C136.764 40.1519 136.85 39.8249 136.85 39.3788C136.85 38.9557 136.765 38.6502 136.586 38.4365C136.417 38.2285 136.203 38.1324 135.945 38.1324C135.669 38.1324 135.446 38.2285 135.269 38.4394C135.096 38.6531 135.01 38.9686 135.01 39.3961ZM133.138 39.4018C133.138 38.6674 133.389 38.0521 133.891 37.5716C134.391 37.0896 135.068 36.8472 135.913 36.8472C136.887 36.8472 137.613 37.1341 138.113 37.6921C138.521 38.1525 138.71 38.7061 138.71 39.376C138.71 40.1218 138.472 40.7329 137.976 41.2047C137.475 41.6809 136.798 41.919 135.916 41.919C135.139 41.919 134.51 41.7268 134.026 41.3295C133.435 40.8433 133.138 40.195 133.138 39.4018ZM129.878 39.4018C129.878 39.779 129.956 40.0673 130.12 40.2581C130.278 40.4431 130.479 40.5306 130.73 40.5306C130.949 40.5306 131.131 40.4446 131.275 40.271C131.424 40.0874 131.498 39.7776 131.498 39.3559C131.498 38.9615 131.422 38.6717 131.267 38.4996C131.118 38.3045 130.929 38.2156 130.711 38.2156C130.474 38.2156 130.276 38.3117 130.116 38.4996C129.952 38.6818 129.878 38.9801 129.878 39.4018ZM128.007 43.6532V36.9591H129.75V37.6777C129.998 37.3708 130.215 37.1728 130.411 37.0624C130.688 36.9276 130.985 36.8472 131.315 36.8472C131.967 36.8472 132.467 37.1025 132.822 37.6003C133.179 38.0908 133.347 38.7076 133.347 39.4419C133.347 40.248 133.164 40.8591 132.769 41.2879C132.386 41.7082 131.897 41.919 131.299 41.919C131.018 41.919 130.761 41.8717 130.519 41.7756C130.286 41.6766 130.077 41.5346 129.889 41.3424V43.6532H128.007ZM125.848 39.5122C125.599 39.6069 125.328 39.6844 125.05 39.7532C124.675 39.8507 124.43 39.9554 124.331 40.0501C124.226 40.1505 124.185 40.2653 124.185 40.3929C124.185 40.5392 124.228 40.6568 124.331 40.7544C124.43 40.8447 124.585 40.8978 124.78 40.8978C124.994 40.8978 125.184 40.8433 125.355 40.74C125.54 40.6411 125.669 40.5163 125.738 40.37C125.81 40.2237 125.848 40.0415 125.848 39.8077V39.5122ZM124.236 38.534L122.463 38.3447C122.529 38.0349 122.624 37.791 122.749 37.6117C122.877 37.4339 123.056 37.2761 123.303 37.1484C123.466 37.0538 123.704 36.9835 124.005 36.9304C124.301 36.8716 124.622 36.8472 124.972 36.8472C125.529 36.8472 125.976 36.8774 126.307 36.9376C126.649 37.0079 126.934 37.1341 127.159 37.3378C127.32 37.4712 127.448 37.6677 127.532 37.9173C127.624 38.1726 127.669 38.4049 127.669 38.6387V40.7759C127.669 41.0082 127.683 41.1861 127.712 41.3166C127.742 41.4457 127.808 41.6121 127.902 41.8072H126.157C126.094 41.6924 126.036 41.5935 126.022 41.5289C125.995 41.4629 125.978 41.3582 125.956 41.2177C125.714 41.4486 125.47 41.6193 125.229 41.7211C124.9 41.8588 124.517 41.919 124.089 41.919C123.502 41.919 123.064 41.7871 122.765 41.5217C122.463 41.2506 122.317 40.9193 122.317 40.5306C122.317 40.1577 122.428 39.8608 122.638 39.6198C122.855 39.3788 123.255 39.2053 123.835 39.0905C124.54 38.95 124.982 38.8539 125.194 38.7936C125.4 38.7377 125.62 38.666 125.848 38.5713C125.848 38.3447 125.803 38.1826 125.709 38.0951C125.608 38.0019 125.451 37.9545 125.209 37.9545C124.906 37.9545 124.675 38.0033 124.527 38.1037C124.403 38.184 124.312 38.3217 124.236 38.534ZM117.172 35.116H119.04V37.5773C119.292 37.322 119.539 37.1341 119.79 37.0222C120.038 36.9089 120.335 36.8472 120.676 36.8472C121.183 36.8472 121.577 37.0079 121.874 37.3148C122.162 37.6218 122.306 38.0908 122.306 38.7291V41.8072H120.437V39.1436C120.437 38.8424 120.382 38.6287 120.267 38.501C120.157 38.3705 119.996 38.306 119.797 38.306C119.57 38.306 119.385 38.392 119.245 38.5656C119.109 38.732 119.043 39.0446 119.043 39.4821V41.8072H117.175V35.116H117.172ZM111.058 39.5997L113.024 39.4735C113.07 39.7948 113.153 40.0415 113.282 40.2079C113.5 40.4704 113.803 40.6095 114.199 40.6095C114.493 40.6095 114.722 40.5378 114.884 40.403C115.039 40.2638 115.121 40.1032 115.121 39.9153C115.121 39.7446 115.039 39.5954 114.89 39.4563C114.738 39.3186 114.39 39.1866 113.832 39.0705C112.924 38.8625 112.274 38.5957 111.89 38.2572C111.495 37.9173 111.311 37.4826 111.311 36.9591C111.311 36.6192 111.406 36.285 111.604 35.9909C111.806 35.6826 112.103 35.4402 112.506 35.268C112.911 35.0887 113.456 35.0027 114.151 35.0027C115.005 35.0027 115.656 35.1633 116.109 35.4803C116.561 35.7973 116.827 36.3022 116.913 36.9978L114.963 37.1126C114.906 36.8056 114.801 36.5876 114.635 36.4557C114.468 36.3122 114.239 36.2477 113.946 36.2477C113.705 36.2477 113.525 36.2965 113.4 36.3983C113.284 36.5059 113.225 36.6278 113.225 36.7755C113.225 36.8716 113.272 36.9763 113.37 37.0624C113.472 37.1513 113.701 37.2288 114.068 37.3062C114.97 37.5056 115.617 37.7007 116.012 37.9058C116.406 38.098 116.682 38.3461 116.868 38.6488C117.043 38.9442 117.132 39.2741 117.132 39.637C117.132 40.0702 117.014 40.4632 116.775 40.8232C116.544 41.1847 116.203 41.4658 115.779 41.6451C115.356 41.8359 114.811 41.932 114.164 41.932C113.026 41.932 112.24 41.7111 111.796 41.2722C111.362 40.8261 111.116 40.2739 111.058 39.5997Z" fill="white"/>
<path d="M182.572 36.9476H184.428V41.8043H182.572V36.9476ZM182.572 35.106H184.428V36.3682H182.572V35.106ZM180.334 36.9476H182.198V41.6551C182.198 42.2504 182.153 42.6807 182.071 42.9288C181.977 43.1813 181.813 43.3806 181.582 43.537C181.349 43.6933 181.013 43.7679 180.58 43.7679C180.223 43.7679 179.772 43.7191 179.239 43.613L179.523 42.2604C179.672 42.2848 179.777 42.302 179.848 42.302C180.005 42.302 180.125 42.2518 180.21 42.1485C180.286 42.0352 180.333 41.8186 180.333 41.4974V36.9476H180.334ZM180.334 35.106H182.198V36.3811H180.334V35.106ZM174.895 36.9476H176.628V37.7423C176.888 37.4181 177.146 37.1872 177.413 37.0509C177.68 36.9075 178.001 36.8415 178.385 36.8415C178.894 36.8415 179.302 36.9935 179.592 37.3048C179.878 37.606 180.028 38.0793 180.028 38.7205V41.8043H178.157V39.1379C178.157 38.8281 178.097 38.6172 177.985 38.4881C177.869 38.3619 177.714 38.3017 177.513 38.3017C177.291 38.3017 177.104 38.3892 176.97 38.5584C176.825 38.7205 176.754 39.0403 176.754 39.4721V41.8043H174.895V36.9476ZM171.159 39.3874C171.159 39.8221 171.251 40.1433 171.426 40.3499C171.602 40.5493 171.826 40.6568 172.087 40.6568C172.351 40.6568 172.569 40.5579 172.744 40.3499C172.916 40.1433 173.004 39.8221 173.004 39.3631C173.004 38.95 172.915 38.6387 172.744 38.435C172.569 38.2185 172.358 38.1209 172.1 38.1209C171.827 38.1209 171.607 38.2271 171.426 38.435C171.255 38.6459 171.159 38.9571 171.159 39.3874ZM169.3 39.3874C169.3 38.6531 169.547 38.0392 170.05 37.5644C170.549 37.0782 171.216 36.8429 172.067 36.8429C173.039 36.8429 173.78 37.1255 174.276 37.6878C174.672 38.1396 174.873 38.7018 174.873 39.3631C174.873 40.1104 174.629 40.7199 174.134 41.2033C173.636 41.6781 172.946 41.919 172.078 41.919C171.297 41.919 170.667 41.7096 170.188 41.3166C169.6 40.8275 169.3 40.1821 169.3 39.3874ZM167.347 35.106H169.211V41.8043H167.347V35.106ZM165.108 35.106H166.969V41.8043H165.108V35.106ZM162.983 39.4993C162.728 39.594 162.464 39.67 162.189 39.7417C161.806 39.8421 161.572 39.9483 161.467 40.0415C161.367 40.1419 161.312 40.2567 161.312 40.3829C161.312 40.5306 161.367 40.6468 161.464 40.7386C161.572 40.8333 161.72 40.8734 161.912 40.8734C162.123 40.8734 162.314 40.8261 162.496 40.7329C162.674 40.6324 162.797 40.5077 162.873 40.3657C162.945 40.2165 162.983 40.0286 162.983 39.7977V39.4993ZM161.371 38.5197L159.597 38.3332C159.661 38.032 159.758 37.7824 159.891 37.606C160.011 37.431 160.188 37.2689 160.426 37.137C160.595 37.0437 160.833 36.9692 161.133 36.919C161.437 36.8716 161.751 36.8429 162.101 36.8429C162.658 36.8429 163.11 36.8731 163.448 36.9362C163.784 36.9978 164.065 37.1312 164.29 37.3306C164.451 37.4654 164.573 37.6576 164.664 37.9058C164.753 38.1654 164.802 38.3949 164.802 38.6359V40.773C164.802 41.0025 164.818 41.1789 164.847 41.308C164.878 41.4357 164.935 41.6049 165.037 41.8043H163.29C163.22 41.6766 163.174 41.5805 163.15 41.5217C163.13 41.4486 163.11 41.3453 163.091 41.2091C162.85 41.4414 162.605 41.6107 162.362 41.7082C162.03 41.8402 161.651 41.9176 161.213 41.9176C160.638 41.9176 160.194 41.7742 159.895 41.5117C159.594 41.2363 159.442 40.9093 159.442 40.5148C159.442 40.1491 159.554 39.845 159.77 39.6055C159.988 39.3745 160.387 39.1938 160.968 39.0848C161.671 38.9414 162.121 38.8424 162.324 38.7908C162.53 38.7277 162.755 38.6559 162.982 38.5641C162.982 38.3303 162.937 38.1697 162.846 38.0808C162.747 38.0004 162.582 37.9431 162.346 37.9431C162.034 37.9431 161.813 37.999 161.655 38.0937C161.542 38.1726 161.447 38.3131 161.371 38.5197ZM156.147 37.9574H156.654C157.055 37.9574 157.333 37.8914 157.5 37.7451C157.658 37.6203 157.737 37.4382 157.737 37.223C157.737 37.0079 157.669 36.8343 157.53 36.6837C157.385 36.5403 157.128 36.4643 156.73 36.4643H156.147V37.9574ZM154.073 35.106H157.506C158.257 35.106 158.821 35.2795 159.194 35.6381C159.568 35.9981 159.756 36.5059 159.756 37.1542C159.756 37.8369 159.55 38.3619 159.138 38.7391C158.731 39.1293 158.109 39.3186 157.278 39.3186H156.147V41.8029H154.073V35.106Z" fill="white"/>
<path d="M185.782 32.0881C185.974 32.0881 186.162 32.1369 186.343 32.2344C186.524 32.3348 186.667 32.4725 186.771 32.659C186.872 32.8412 186.921 33.0334 186.921 33.2327C186.921 33.4278 186.874 33.6186 186.775 33.7993C186.673 33.98 186.531 34.122 186.35 34.2239C186.174 34.3243 185.982 34.3716 185.784 34.3716C185.584 34.3716 185.394 34.3243 185.216 34.2239C185.031 34.122 184.889 33.98 184.788 33.7993C184.688 33.6186 184.638 33.4278 184.638 33.2327C184.638 33.0334 184.688 32.8412 184.794 32.659C184.894 32.474 185.038 32.3363 185.221 32.2344C185.401 32.1355 185.589 32.0881 185.782 32.0881ZM185.782 32.2732C185.62 32.2732 185.464 32.3191 185.31 32.4023C185.16 32.484 185.041 32.6002 184.953 32.7551C184.869 32.9057 184.827 33.0664 184.827 33.2327C184.827 33.3963 184.867 33.554 184.952 33.7046C185.036 33.8567 185.153 33.9772 185.308 34.0589C185.458 34.145 185.616 34.1866 185.782 34.1866C185.947 34.1866 186.105 34.145 186.257 34.0589C186.408 33.9786 186.525 33.8581 186.61 33.7046C186.692 33.554 186.736 33.3963 186.736 33.2327C186.736 33.0664 186.692 32.9057 186.606 32.7551C186.52 32.6002 186.4 32.484 186.25 32.4023C186.096 32.3191 185.94 32.2732 185.782 32.2732ZM185.28 33.8638V32.6332H185.701C185.85 32.6332 185.95 32.6447 186.015 32.669C186.082 32.6906 186.131 32.7293 186.172 32.7867C186.208 32.8426 186.23 32.9057 186.23 32.9674C186.23 33.0563 186.198 33.1352 186.131 33.1997C186.068 33.2686 185.98 33.3059 185.876 33.3145C185.917 33.3317 185.952 33.3532 185.98 33.3776C186.032 33.4264 186.092 33.5096 186.164 33.62L186.313 33.8638H186.073L185.963 33.6673C185.877 33.5167 185.807 33.4192 185.754 33.379C185.718 33.3561 185.666 33.3417 185.594 33.3417H185.478V33.8638H185.28ZM185.477 33.1711H185.718C185.834 33.1711 185.913 33.1553 185.95 33.118C185.996 33.085 186.015 33.0405 186.015 32.9832C186.015 32.9473 186.007 32.9157 185.987 32.8842C185.967 32.8584 185.94 32.834 185.904 32.8211C185.868 32.8082 185.801 32.8024 185.701 32.8024H185.477V33.1711Z" fill="white"/>
<path d="M122.067 24.3571C120.663 24.3571 119.463 23.0791 119.463 20.2075C119.463 16.4998 120.741 15.1716 122.214 15.1716C123.711 15.1716 124.821 16.4252 124.821 19.3025C124.82 23.158 123.54 24.3571 122.067 24.3571ZM122.264 12.8379C118.872 12.8379 116.465 15.2691 116.465 20.2075C116.465 24.5091 118.674 26.695 122.019 26.695C125.408 26.695 127.839 24.0931 127.839 19.3025C127.839 15.0023 125.629 12.8379 122.264 12.8379Z" fill="white"/>
<path d="M129.989 13.0832V21.4123C129.989 24.4589 131.368 26.0567 133.457 26.0567C135.2 26.0567 136.358 25.1717 137.264 23.1565L137.386 23.1809C137.289 24.0931 137.264 24.7515 137.264 25.6149C137.264 27.3534 136.573 28.7289 134.318 28.7289C132.643 28.7289 131.515 28.1695 130.361 27.5757H130.263V30.0829C131.368 30.6954 132.597 31.0654 134.218 31.0654C137.043 31.0654 140.141 30.278 140.141 25.3941V13.0832H137.191V15.9361C137.191 21.7838 135.986 23.4993 134.365 23.4993C133.457 23.4993 132.938 22.7147 132.938 20.678V13.0846H129.989V13.0832Z" fill="white"/>
<path d="M149.495 26.4483C152.198 23.0116 152.983 19.1303 152.983 13.0832H150.037C150.037 18.2955 149.42 21.8556 147.944 24.162H147.798C146.328 21.8799 145.612 18.416 145.612 13.3284V13.0832H142.565C142.565 19.1303 143.498 23.0116 146.252 26.4483H149.495Z" fill="white"/>
<path d="M155.215 9.20332C155.215 10.3321 156.025 10.969 157.012 10.969C157.966 10.969 158.753 10.3321 158.753 9.20332C158.753 8.07163 157.94 7.43478 156.985 7.43478C156.025 7.43478 155.215 8.07306 155.215 9.20332ZM155.489 23.1809C155.489 25.6394 156.54 26.695 158.164 26.695C158.68 26.695 159.146 26.6204 159.711 26.4483V24.5105C158.753 24.5105 158.433 24.1434 158.433 21.9302V13.0846H155.489V23.1809Z" fill="white"/>
<path d="M162.017 23.1307C162.017 25.5863 163.073 26.6477 164.695 26.6477C165.208 26.6477 165.675 26.5702 166.243 26.3967V24.4833C165.283 24.4833 164.963 24.0659 164.963 21.8298V7.26123H162.016V23.1307H162.017Z" fill="white"/>
<path d="M168.549 23.1307C168.549 25.5863 169.602 26.6477 171.222 26.6477C171.739 26.6477 172.208 26.5702 172.773 26.3967V24.4833C171.813 24.4833 171.494 24.0659 171.494 21.8298V7.26123H168.549V23.1307Z" fill="white"/>
<path d="M177.707 21.0925C181.783 21.0925 184.466 19.7944 184.466 16.4739C184.466 14.3612 183.016 12.8121 180.408 12.8121C176.943 12.8121 174.265 15.5172 174.265 20.2835C174.265 24.555 176.749 26.695 179.87 26.695C181.806 26.695 182.964 26.226 184.07 25.6379V23.2555H183.948C182.937 23.7675 181.977 24.2366 180.478 24.2366C178.931 24.2366 177.482 23.3544 177.313 21.0925H177.707ZM177.267 18.9568C177.462 16.1813 178.982 15.1486 180.262 15.1486C181.168 15.1486 181.564 15.7654 181.564 16.5987C181.563 18.416 180.188 18.9568 177.267 18.9568Z" fill="white"/>
<path d="M110.738 6.11949C112.059 6.04777 113.072 4.82859 112.995 3.39712C112.911 1.96996 111.773 0.866956 110.45 0.942975C109.126 1.01326 108.119 2.23531 108.193 3.66391C108.275 5.09251 109.413 6.19408 110.738 6.11949Z" fill="white"/>
<path d="M118.247 5.94306L116.996 4.54459L116.754 4.2735C116.117 4.98349 115.441 5.56583 114.723 6.02339C113.67 6.69179 112.478 7.10488 111.243 7.24257C109.826 7.40035 108.39 7.22966 107.01 6.8969C106.607 6.79793 106.213 6.68318 105.817 6.56126C105.817 6.56126 104.142 5.99757 104.077 5.95597L103.404 8.10461L103.168 8.86767L103.119 9.00824C103.135 9.01254 103.151 9.02115 103.164 9.02832C103.575 9.18466 103.967 9.32523 104.351 9.45718C104.52 9.51456 104.69 9.56763 104.852 9.62357C106.233 10.0596 107.676 10.3766 109.126 10.4555C109.442 10.4713 109.76 10.477 110.083 10.477C110.094 10.5258 110.193 10.88 110.212 11.0278C110.644 14.2163 110.913 17.3016 110.483 20.3151C110.321 21.4626 109.968 22.7922 109.026 23.5581C108.146 24.2767 106.834 23.6915 105.958 23.2125C105.665 23.0561 105.385 22.8653 105.121 22.6631C104.248 22.0004 103.699 21.3607 103.699 21.3607L101.898 23.1565C102.006 23.3301 102.203 23.5581 102.442 23.7977C103.238 24.6654 104.198 25.3769 105.255 25.8932C106.203 26.3493 107.314 26.7294 108.383 26.6893C109.367 26.6506 110.2 26.3623 110.923 25.7053C111.301 25.3625 111.691 24.9609 111.982 24.5421C112.256 24.1448 112.481 23.7188 112.667 23.2784C114.211 19.6883 113.653 13.9151 113.108 10.0725C113.403 9.98645 113.703 9.88892 113.988 9.76987C114.413 9.59775 114.823 9.3783 115.208 9.13589C115.54 8.92505 115.856 8.69268 116.167 8.44885C116.46 8.21792 116.741 7.97121 117.015 7.7116C117.487 7.26409 117.966 6.76207 118.478 6.1912L118.247 5.94306Z" fill="white"/>
<path d="M185.487 12.1437H185.739C185.858 12.1437 185.94 12.1265 185.986 12.0906C186.03 12.0519 186.053 12.0031 186.053 11.9472C186.053 11.9085 186.04 11.8755 186.022 11.8439C185.997 11.8167 185.971 11.7937 185.933 11.7794C185.893 11.765 185.825 11.7578 185.725 11.7578H185.487V12.1437ZM185.279 12.8666V11.58H185.722C185.875 11.58 185.984 11.5929 186.05 11.6158C186.118 11.6402 186.174 11.6833 186.214 11.7435C186.255 11.7994 186.273 11.8626 186.273 11.9285C186.273 12.0218 186.24 12.1064 186.174 12.1724C186.105 12.2441 186.017 12.2828 185.904 12.2914C185.95 12.3086 185.986 12.333 186.013 12.3603C186.065 12.409 186.129 12.4937 186.202 12.6156L186.36 12.8652H186.108L185.993 12.6643C185.904 12.5023 185.829 12.4033 185.775 12.3617C185.738 12.333 185.683 12.3187 185.609 12.3201H185.485V12.8652H185.279V12.8666ZM185.804 11.2099C185.639 11.2099 185.474 11.2515 185.313 11.3362C185.155 11.4208 185.031 11.547 184.939 11.7062C184.848 11.8683 184.802 12.0361 184.802 12.2068C184.802 12.3789 184.848 12.5467 184.936 12.7045C185.026 12.8609 185.15 12.9856 185.307 13.0731C185.469 13.1606 185.634 13.2051 185.804 13.2051C185.977 13.2051 186.142 13.1606 186.301 13.0731C186.459 12.9842 186.584 12.8594 186.673 12.7045C186.759 12.5467 186.805 12.3775 186.805 12.2068C186.805 12.0361 186.759 11.8683 186.67 11.7062C186.578 11.547 186.456 11.4222 186.296 11.3362C186.134 11.2501 185.973 11.2099 185.804 11.2099ZM185.804 11.0077C186.004 11.0077 186.204 11.0608 186.392 11.164C186.584 11.2687 186.736 11.4136 186.839 11.6058C186.948 11.798 187 12.0003 187 12.2054C187 12.4133 186.948 12.6098 186.844 12.8006C186.737 12.9928 186.591 13.1405 186.4 13.2438C186.21 13.35 186.013 13.4016 185.804 13.4016C185.599 13.4016 185.401 13.35 185.208 13.2438C185.022 13.1405 184.873 12.9914 184.765 12.8006C184.66 12.6098 184.607 12.4119 184.607 12.2054C184.607 12.0003 184.662 11.798 184.771 11.6058C184.877 11.4136 185.029 11.2673 185.217 11.164C185.411 11.0608 185.606 11.0077 185.804 11.0077Z" fill="white"/>
</svg>
